<?xml version="1.0" standalone="no"?><svg xmlns="http://www.w3.org/2000/svg" viewBox="0 0 1440 320"><path fill="#34C8D4" fill-opacity="1"
 d="M0,160L12.6,170.7C25.3,181,51,203,76,213.3C101.1,224,126,224,152,234.7C176.8,245,202,267,227,256C252.6,245,278,203,303,170.7C328.4,139,354,117,379,122.7C404.2,128,429,160,455,186.7C480,213,505,235,531,250.7C555.8,267,581,277,606,266.7C631.6,256,657,224,682,186.7C707.4,149,733,107,758,74.7C783.2,43,808,21,834,32C858.9,43,884,85,909,85.3C934.7,85,960,43,985,58.7C1010.5,75,1036,149,1061,176C1086.3,203,1112,181,1137,181.3C1162.1,181,1187,203,1213,202.7C1237.9,203,1263,181,1288,181.3C1313.7,181,1339,203,1364,176C1389.5,149,1415,75,1427,37.3L1440,0L1440,320L1427.4,320C1414.7,320,1389,320,1364,320C1338.9,320,1314,320,1288,320C1263.2,320,1238,320,1213,320C1187.4,320,1162,320,1137,320C1111.6,320,1086,320,1061,320C1035.8,320,1011,320,985,320C960,320,935,320,909,320C884.2,320,859,320,834,320C808.4,320,783,320,758,320C732.6,320,707,320,682,320C656.8,320,632,320,606,320C581.1,320,556,320,531,320C505.3,320,480,320,455,320C429.5,320,404,320,379,320C353.7,320,328,320,303,320C277.9,320,253,320,227,320C202.1,320,177,320,152,320C126.3,320,101,320,76,320C50.5,320,25,320,13,320L0,320Z"></path></svg>
